<mxfile host="drawio-plugin" modified="2021-07-14T14:29:59.904Z" agent="5.0 (Macintosh; Intel Mac OS X 11_2_2) AppleWebKit/537.36 (KHTML, like Gecko) Chrome/87.0.4280.141 Safari/537.36" etag="WQMAbmyDhzj--DZWp6vQ" version="14.7.4" type="embed"><diagram id="23iRSUPoRavnBvh4doch" name="Page-1"><mxGraphModel dx="2219" dy="730" grid="1" gridSize="10" guides="1" tooltips="1" connect="1" arrows="1" fold="1" page="1" pageScale="1" pageWidth="827" pageHeight="1169" math="0" shadow="0"><root><mxCell id="0"/><mxCell id="1" parent="0"/><mxCell id="2" value="&lt;h1&gt;建造者模式&lt;/h1&gt;&lt;p style=&quot;box-sizing: border-box ; line-height: 24px ; margin: 0px 0px 24px ; color: rgb(64 , 64 , 64) ; font-family: &amp;#34;lato&amp;#34; , , &amp;#34;helvetica neue&amp;#34; , &amp;#34;arial&amp;#34; , sans-serif ; background-color: rgb(252 , 252 , 252)&quot;&gt;&lt;font style=&quot;font-size: 12px&quot;&gt;造者模式(Builder Pattern)：将一个复杂对象的构建与它的表示分离，使得同样的构建过程可以创建不同的表示。&lt;/font&gt;建造者模式是一步一步创建一个复杂的对象，它允许用户只通过指定复杂对象的类型和内容就可以构建它们，用户不需要知道内部的具体构建细节。建造者模式属于对象创建型模式。根据中文翻译的不同，建造者模式又可以称为生成器模式。&lt;span style=&quot;color: rgb(0 , 0 , 0)&quot;&gt;.&lt;/span&gt;&lt;/p&gt;" style="text;html=1;strokeColor=none;fillColor=none;spacing=5;spacingTop=-20;whiteSpace=wrap;overflow=hidden;rounded=0;" parent="1" vertex="1"><mxGeometry x="10" y="70" width="710" height="120" as="geometry"/></mxCell><mxCell id="3" value="Main" style="swimlane;fontStyle=1;align=center;verticalAlign=top;childLayout=stackLayout;horizontal=1;startSize=26;horizontalStack=0;resizeParent=1;resizeParentMax=0;resizeLast=0;collapsible=1;marginBottom=0;" vertex="1" parent="1"><mxGeometry x="-60" y="290" width="160" height="86" as="geometry"/></mxCell><mxCell id="4" value=" " style="text;strokeColor=none;fillColor=none;align=left;verticalAlign=top;spacingLeft=4;spacingRight=4;overflow=hidden;rotatable=0;points=[[0,0.5],[1,0.5]];portConstraint=eastwest;" vertex="1" parent="3"><mxGeometry y="26" width="160" height="26" as="geometry"/></mxCell><mxCell id="5" value="" style="line;strokeWidth=1;fillColor=none;align=left;verticalAlign=middle;spacingTop=-1;spacingLeft=3;spacingRight=3;rotatable=0;labelPosition=right;points=[];portConstraint=eastwest;" vertex="1" parent="3"><mxGeometry y="52" width="160" height="8" as="geometry"/></mxCell><mxCell id="6" value=" " style="text;strokeColor=none;fillColor=none;align=left;verticalAlign=top;spacingLeft=4;spacingRight=4;overflow=hidden;rotatable=0;points=[[0,0.5],[1,0.5]];portConstraint=eastwest;" vertex="1" parent="3"><mxGeometry y="60" width="160" height="26" as="geometry"/></mxCell><mxCell id="7" value="Director" style="swimlane;fontStyle=1;align=center;verticalAlign=top;childLayout=stackLayout;horizontal=1;startSize=26;horizontalStack=0;resizeParent=1;resizeParentMax=0;resizeLast=0;collapsible=1;marginBottom=0;" vertex="1" parent="1"><mxGeometry x="220" y="290" width="160" height="86" as="geometry"/></mxCell><mxCell id="8" value="builder " style="text;strokeColor=none;fillColor=none;align=left;verticalAlign=top;spacingLeft=4;spacingRight=4;overflow=hidden;rotatable=0;points=[[0,0.5],[1,0.5]];portConstraint=eastwest;" vertex="1" parent="7"><mxGeometry y="26" width="160" height="26" as="geometry"/></mxCell><mxCell id="9" value="" style="line;strokeWidth=1;fillColor=none;align=left;verticalAlign=middle;spacingTop=-1;spacingLeft=3;spacingRight=3;rotatable=0;labelPosition=right;points=[];portConstraint=eastwest;" vertex="1" parent="7"><mxGeometry y="52" width="160" height="8" as="geometry"/></mxCell><mxCell id="10" value="construct " style="text;strokeColor=none;fillColor=none;align=left;verticalAlign=top;spacingLeft=4;spacingRight=4;overflow=hidden;rotatable=0;points=[[0,0.5],[1,0.5]];portConstraint=eastwest;" vertex="1" parent="7"><mxGeometry y="60" width="160" height="26" as="geometry"/></mxCell><mxCell id="11" value="Builder" style="swimlane;fontStyle=1;align=center;verticalAlign=top;childLayout=stackLayout;horizontal=1;startSize=26;horizontalStack=0;resizeParent=1;resizeParentMax=0;resizeLast=0;collapsible=1;marginBottom=0;" vertex="1" parent="1"><mxGeometry x="490" y="255" width="160" height="164" as="geometry"/></mxCell><mxCell id="12" value=" " style="text;strokeColor=none;fillColor=none;align=left;verticalAlign=top;spacingLeft=4;spacingRight=4;overflow=hidden;rotatable=0;points=[[0,0.5],[1,0.5]];portConstraint=eastwest;" vertex="1" parent="11"><mxGeometry y="26" width="160" height="26" as="geometry"/></mxCell><mxCell id="13" value="" style="line;strokeWidth=1;fillColor=none;align=left;verticalAlign=middle;spacingTop=-1;spacingLeft=3;spacingRight=3;rotatable=0;labelPosition=right;points=[];portConstraint=eastwest;" vertex="1" parent="11"><mxGeometry y="52" width="160" height="8" as="geometry"/></mxCell><mxCell id="14" value="makeTitle " style="text;strokeColor=none;fillColor=none;align=left;verticalAlign=top;spacingLeft=4;spacingRight=4;overflow=hidden;rotatable=0;points=[[0,0.5],[1,0.5]];portConstraint=eastwest;" vertex="1" parent="11"><mxGeometry y="60" width="160" height="26" as="geometry"/></mxCell><mxCell id="32" value="makeString" style="text;strokeColor=none;fillColor=none;align=left;verticalAlign=top;spacingLeft=4;spacingRight=4;overflow=hidden;rotatable=0;points=[[0,0.5],[1,0.5]];portConstraint=eastwest;" vertex="1" parent="11"><mxGeometry y="86" width="160" height="26" as="geometry"/></mxCell><mxCell id="33" value="makeItems" style="text;strokeColor=none;fillColor=none;align=left;verticalAlign=top;spacingLeft=4;spacingRight=4;overflow=hidden;rotatable=0;points=[[0,0.5],[1,0.5]];portConstraint=eastwest;" vertex="1" parent="11"><mxGeometry y="112" width="160" height="26" as="geometry"/></mxCell><mxCell id="34" value="close" style="text;strokeColor=none;fillColor=none;align=left;verticalAlign=top;spacingLeft=4;spacingRight=4;overflow=hidden;rotatable=0;points=[[0,0.5],[1,0.5]];portConstraint=eastwest;" vertex="1" parent="11"><mxGeometry y="138" width="160" height="26" as="geometry"/></mxCell><mxCell id="15" value="TextBuilder" style="swimlane;fontStyle=1;align=center;verticalAlign=top;childLayout=stackLayout;horizontal=1;startSize=26;horizontalStack=0;resizeParent=1;resizeParentMax=0;resizeLast=0;collapsible=1;marginBottom=0;" vertex="1" parent="1"><mxGeometry x="310" y="540" width="160" height="190" as="geometry"/></mxCell><mxCell id="16" value="buffer " style="text;strokeColor=none;fillColor=none;align=left;verticalAlign=top;spacingLeft=4;spacingRight=4;overflow=hidden;rotatable=0;points=[[0,0.5],[1,0.5]];portConstraint=eastwest;" vertex="1" parent="15"><mxGeometry y="26" width="160" height="26" as="geometry"/></mxCell><mxCell id="17" value="" style="line;strokeWidth=1;fillColor=none;align=left;verticalAlign=middle;spacingTop=-1;spacingLeft=3;spacingRight=3;rotatable=0;labelPosition=right;points=[];portConstraint=eastwest;" vertex="1" parent="15"><mxGeometry y="52" width="160" height="8" as="geometry"/></mxCell><mxCell id="18" value="makeTitle " style="text;strokeColor=none;fillColor=none;align=left;verticalAlign=top;spacingLeft=4;spacingRight=4;overflow=hidden;rotatable=0;points=[[0,0.5],[1,0.5]];portConstraint=eastwest;" vertex="1" parent="15"><mxGeometry y="60" width="160" height="26" as="geometry"/></mxCell><mxCell id="19" value="makeString" style="text;strokeColor=none;fillColor=none;align=left;verticalAlign=top;spacingLeft=4;spacingRight=4;overflow=hidden;rotatable=0;points=[[0,0.5],[1,0.5]];portConstraint=eastwest;" vertex="1" parent="15"><mxGeometry y="86" width="160" height="26" as="geometry"/></mxCell><mxCell id="20" value="makeItems" style="text;strokeColor=none;fillColor=none;align=left;verticalAlign=top;spacingLeft=4;spacingRight=4;overflow=hidden;rotatable=0;points=[[0,0.5],[1,0.5]];portConstraint=eastwest;" vertex="1" parent="15"><mxGeometry y="112" width="160" height="26" as="geometry"/></mxCell><mxCell id="21" value="close" style="text;strokeColor=none;fillColor=none;align=left;verticalAlign=top;spacingLeft=4;spacingRight=4;overflow=hidden;rotatable=0;points=[[0,0.5],[1,0.5]];portConstraint=eastwest;" vertex="1" parent="15"><mxGeometry y="138" width="160" height="26" as="geometry"/></mxCell><mxCell id="22" value="getResult" style="text;strokeColor=none;fillColor=none;align=left;verticalAlign=top;spacingLeft=4;spacingRight=4;overflow=hidden;rotatable=0;points=[[0,0.5],[1,0.5]];portConstraint=eastwest;" vertex="1" parent="15"><mxGeometry y="164" width="160" height="26" as="geometry"/></mxCell><mxCell id="23" value="HTMLBuilder" style="swimlane;fontStyle=1;align=center;verticalAlign=top;childLayout=stackLayout;horizontal=1;startSize=26;horizontalStack=0;resizeParent=1;resizeParentMax=0;resizeLast=0;collapsible=1;marginBottom=0;" vertex="1" parent="1"><mxGeometry x="710" y="540" width="160" height="216" as="geometry"/></mxCell><mxCell id="24" value="filename" style="text;strokeColor=none;fillColor=none;align=left;verticalAlign=top;spacingLeft=4;spacingRight=4;overflow=hidden;rotatable=0;points=[[0,0.5],[1,0.5]];portConstraint=eastwest;" vertex="1" parent="23"><mxGeometry y="26" width="160" height="26" as="geometry"/></mxCell><mxCell id="31" value="writer" style="text;strokeColor=none;fillColor=none;align=left;verticalAlign=top;spacingLeft=4;spacingRight=4;overflow=hidden;rotatable=0;points=[[0,0.5],[1,0.5]];portConstraint=eastwest;" vertex="1" parent="23"><mxGeometry y="52" width="160" height="26" as="geometry"/></mxCell><mxCell id="25" value="" style="line;strokeWidth=1;fillColor=none;align=left;verticalAlign=middle;spacingTop=-1;spacingLeft=3;spacingRight=3;rotatable=0;labelPosition=right;points=[];portConstraint=eastwest;" vertex="1" parent="23"><mxGeometry y="78" width="160" height="8" as="geometry"/></mxCell><mxCell id="26" value="makeTitle " style="text;strokeColor=none;fillColor=none;align=left;verticalAlign=top;spacingLeft=4;spacingRight=4;overflow=hidden;rotatable=0;points=[[0,0.5],[1,0.5]];portConstraint=eastwest;" vertex="1" parent="23"><mxGeometry y="86" width="160" height="26" as="geometry"/></mxCell><mxCell id="27" value="makeString" style="text;strokeColor=none;fillColor=none;align=left;verticalAlign=top;spacingLeft=4;spacingRight=4;overflow=hidden;rotatable=0;points=[[0,0.5],[1,0.5]];portConstraint=eastwest;" vertex="1" parent="23"><mxGeometry y="112" width="160" height="26" as="geometry"/></mxCell><mxCell id="28" value="makeItems" style="text;strokeColor=none;fillColor=none;align=left;verticalAlign=top;spacingLeft=4;spacingRight=4;overflow=hidden;rotatable=0;points=[[0,0.5],[1,0.5]];portConstraint=eastwest;" vertex="1" parent="23"><mxGeometry y="138" width="160" height="26" as="geometry"/></mxCell><mxCell id="29" value="close" style="text;strokeColor=none;fillColor=none;align=left;verticalAlign=top;spacingLeft=4;spacingRight=4;overflow=hidden;rotatable=0;points=[[0,0.5],[1,0.5]];portConstraint=eastwest;" vertex="1" parent="23"><mxGeometry y="164" width="160" height="26" as="geometry"/></mxCell><mxCell id="30" value="getResult" style="text;strokeColor=none;fillColor=none;align=left;verticalAlign=top;spacingLeft=4;spacingRight=4;overflow=hidden;rotatable=0;points=[[0,0.5],[1,0.5]];portConstraint=eastwest;" vertex="1" parent="23"><mxGeometry y="190" width="160" height="26" as="geometry"/></mxCell><mxCell id="36" value="Use" style="endArrow=open;endSize=12;dashed=1;html=1;exitX=1;exitY=0.5;exitDx=0;exitDy=0;entryX=0;entryY=0.5;entryDx=0;entryDy=0;" edge="1" parent="1" source="4" target="8"><mxGeometry width="160" relative="1" as="geometry"><mxPoint x="220" y="450" as="sourcePoint"/><mxPoint x="380" y="450" as="targetPoint"/></mxGeometry></mxCell><mxCell id="37" value="Use" style="endArrow=open;endSize=12;dashed=1;html=1;exitX=0.425;exitY=1;exitDx=0;exitDy=0;exitPerimeter=0;entryX=0.519;entryY=1.115;entryDx=0;entryDy=0;entryPerimeter=0;" edge="1" parent="1" source="6" target="22"><mxGeometry width="160" relative="1" as="geometry"><mxPoint x="110" y="520" as="sourcePoint"/><mxPoint x="270" y="520" as="targetPoint"/><Array as="points"><mxPoint x="8" y="800"/><mxPoint x="393" y="800"/></Array></mxGeometry></mxCell><mxCell id="38" value="Use" style="endArrow=open;endSize=12;dashed=1;html=1;entryX=0.531;entryY=1.038;entryDx=0;entryDy=0;entryPerimeter=0;exitX=0.425;exitY=1.038;exitDx=0;exitDy=0;exitPerimeter=0;" edge="1" parent="1" source="6" target="30"><mxGeometry width="160" relative="1" as="geometry"><mxPoint x="130" y="370" as="sourcePoint"/><mxPoint x="320" y="420" as="targetPoint"/><Array as="points"><mxPoint x="8" y="800"/><mxPoint x="725" y="800"/></Array></mxGeometry></mxCell><mxCell id="39" value="Extends" style="endArrow=block;endSize=16;endFill=0;html=1;exitX=0.5;exitY=0;exitDx=0;exitDy=0;entryX=0.494;entryY=1;entryDx=0;entryDy=0;entryPerimeter=0;" edge="1" parent="1" source="15" target="34"><mxGeometry width="160" relative="1" as="geometry"><mxPoint x="530" y="520" as="sourcePoint"/><mxPoint x="690" y="520" as="targetPoint"/><Array as="points"><mxPoint x="390" y="480"/><mxPoint x="569" y="480"/></Array></mxGeometry></mxCell><mxCell id="40" value="Extends" style="endArrow=block;endSize=16;endFill=0;html=1;exitX=0.5;exitY=0;exitDx=0;exitDy=0;" edge="1" parent="1" source="23" target="34"><mxGeometry width="160" relative="1" as="geometry"><mxPoint x="720" y="470" as="sourcePoint"/><mxPoint x="570" y="434" as="targetPoint"/><Array as="points"><mxPoint x="790" y="480"/><mxPoint x="570" y="480"/></Array></mxGeometry></mxCell><mxCell id="41" value="" style="endArrow=diamondThin;endFill=0;endSize=24;html=1;entryX=1;entryY=0.5;entryDx=0;entryDy=0;exitX=0;exitY=0.5;exitDx=0;exitDy=0;" edge="1" parent="1" source="14" target="8"><mxGeometry width="160" relative="1" as="geometry"><mxPoint x="230" y="434" as="sourcePoint"/><mxPoint x="390" y="434" as="targetPoint"/></mxGeometry></mxCell><mxCell id="42" value="监工" style="text;html=1;align=center;verticalAlign=middle;resizable=0;points=[];autosize=1;strokeColor=none;" vertex="1" parent="1"><mxGeometry x="250" y="390" width="40" height="20" as="geometry"/></mxCell><mxCell id="43" value="Text" style="text;html=1;align=center;verticalAlign=middle;resizable=0;points=[];autosize=1;strokeColor=none;" vertex="1" parent="1"><mxGeometry x="660" y="300" width="40" height="20" as="geometry"/></mxCell></root></mxGraphModel></diagram></mxfile>